PathFileType	4	(X/Y/Z)	/Users/itak/Documents/Research/Walk-IL/dataset/trc/00157_00007.trc
DataRate	CameraRate	NumFrames	NumMarkers	Units	OrigDataRate	OrigDataStartFrame	OrigNumFrames
100.000000	100.000000	4	54	mm	100.000000	229	611
Frame#	Time	RPSI			LPSI			L3			STRN			T10			C7			CLAV			RBAK			LBAK			LSHO			LUPA			LAEL			LAOL			LWTS			LWPS			LFRA			LIFD			LHPS			LHTS			RSHO			RUPA			RAEL			RAOL			RWTS			RWPS			RFRA			RIFD			RHTS			RHPS			RBHD			LFHD			RFHD			LBHD			LHIP			RHIP			RASI			LASI			LKNE			LTHI			LANK			LTIP			LTOE			LMT1			LMT5			LHEE			RKNE			RTHI			RANK			RTIP			RTOE			RMT1			RMT5			RHEE			*53			
		X1	Y1	Z1	X2	Y2	Z2	X3	Y3	Z3	X4	Y4	Z4	X5	Y5	Z5	X6	Y6	Z6	X7	Y7	Z7	X8	Y8	Z8	X9	Y9	Z9	X10	Y10	Z10	X11	Y11	Z11	X12	Y12	Z12	X13	Y13	Z13	X14	Y14	Z14	X15	Y15	Z15	X16	Y16	Z16	X17	Y17	Z17	X18	Y18	Z18	X19	Y19	Z19	X20	Y20	Z20	X21	Y21	Z21	X22	Y22	Z22	X23	Y23	Z23	X24	Y24	Z24	X25	Y25	Z25	X26	Y26	Z26	X27	Y27	Z27	X28	Y28	Z28	X29	Y29	Z29	X30	Y30	Z30	X31	Y31	Z31	X32	Y32	Z32	X33	Y33	Z33	X34	Y34	Z34	X35	Y35	Z35	X36	Y36	Z36	X37	Y37	Z37	X38	Y38	Z38	X39	Y39	Z39	X40	Y40	Z40	X41	Y41	Z41	X42	Y42	Z42	X43	Y43	Z43	X44	Y44	Z44	X45	Y45	Z45	X46	Y46	Z46	X47	Y47	Z47	X48	Y48	Z48	X49	Y49	Z49	X50	Y50	Z50	X51	Y51	Z51	X52	Y52	Z52	X53	Y53	Z53	X54	Y54	Z54	

230	2.29	-1043.4931640625	1090.401489257812	-548.833984375	-1052.319213867188	1094.375122070312	-684.1041870117188	-1051.958251953125	1131.6923828125	-621.721923828125	-810.8574829101562	1304.53369140625	-637.691650390625	-1068.158203125	1287.647705078125	-628.4979858398438	-993.5303955078125	1572.9453125	-648.414306640625	-827.0297241210938	1443.385864257812	-639.7943115234375	-1071.271606445312	1396.08154296875	-559.5350341796875	-1002.68359375	1553.443969726562	-750.4719848632812	-919.0269165039062	1526.608764648438	-818.8488159179688	-955.5103149414062	1397.831665039062	-888.5405883789062	-971.96728515625	1177.268310546875	-906.120361328125	-1041.658325195312	1177.845703125	-853.8011474609375	-928.9691162109375	905.8079223632812	-851.2797241210938	-1009.372131347656	896.5072631835938	-885.9005126953125	-976.3529052734375	1059.999389648438	-907.2872314453125	-954.8622436523438	714.6552734375	-829.2446899414062	-995.7280883789062	817.162841796875	-883.0346069335938	-930.0154418945312	816.487548828125	-859.9707641601562	-942.8279418945312	1546.239013671875	-466.3077392578125	-971.4636840820312	1475.622436523438	-403.374755859375	-1031.0263671875	1187.2587890625	-387.0391235351562	-1027.993286132812	1186.057250976562	-483.9202575683594	-929.0245361328125	924.6478881835938	-385.450927734375	-1007.773864746094	920.7434692382812	-362.4743041992188	-1021.473388671875	1112.269409179688	-369.3732604980469	-934.8800659179688	727.2254028320312	-398.5218505859375	-919.3191528320312	813.1265258789062	-377.2958679199219	-988.8132934570312	816.4865112304688	-354.9390869140625	-943.0079345703125	1732.16162109375	-567.9933471679688	-758.1812744140625	1785.0478515625	-673.9603271484375	-775.3680419921875	1781.970703125	-545.1771240234375	-933.4465942382812	1739.927368164062	-702.8001098632812	-982.7255249023438	995.7596435546875	-799.0864868164062	-907.9484252929688	990.6699829101562	-442.1849060058594	-832.2587890625	1054.320556640625	-506.4902038574219	-862.6666870117188	1048.598510742188	-771.2529907226562	-1061.859985351562	502.9532775878906	-747.3729858398438	-1048.271484375	650.0877685546875	-779.3411865234375	-1323.586669921875	54.19464111328125	-701.3432006835938	-1237.089599609375	296.3977966308594	-753.6397705078125	-1096.24609375	34.30239868164062	-642.0227661132812	-1175.524780273438	44.40073394775391	-612.6915283203125	-1201.818359375	31.01340675354004	-727.6207275390625	-1391.629028320312	77.66378021240234	-640.4075927734375	-761.5897216796875	532.8865966796875	-505.0001831054688	-837.7973022460938	792.3248291015625	-453.6184692382812	-690.683837890625	24.21668434143066	-567.2125244140625	-744.7007446289062	398.1938171386719	-505.1370849609375	-475.7940063476562	95.84658050537109	-576.900634765625	-515.4573364257812	67.30863189697266	-627.7562866210938	-571.0463256835938	53.16330337524414	-523.1436767578125	-738.7642211914062	20.8738842010498	-623.3896484375	nan	nan	nan	
231	2.3	-1034.2568359375	1091.310424804688	-548.296875	-1043.15380859375	1094.876831054688	-683.62744140625	-1042.74267578125	1132.329833984375	-621.18212890625	-801.5465698242188	1305.272094726562	-636.6543579101562	-1059.065673828125	1288.253784179688	-627.9461669921875	-984.7265014648438	1573.687377929688	-647.3257446289062	-818.1318969726562	1443.955322265625	-638.5574951171875	-1062.201538085938	1396.573120117188	-558.6825561523438	-993.5230712890625	1554.214233398438	-749.3394165039062	-909.7747802734375	1527.49609375	-817.6204223632812	-946.2369384765625	1398.743286132812	-887.4691162109375	-962.8772583007812	1178.255859375	-905.1934814453125	-1032.468872070312	1178.767822265625	-852.7318725585938	-919.83740234375	906.725341796875	-850.8518676757812	-1000.348022460938	897.5050048828125	-885.2732543945312	-967.3192138671875	1060.997680664062	-906.5062866210938	-945.7354125976562	715.54248046875	-829.09716796875	-986.749755859375	818.1565551757812	-882.60107421875	-920.9657592773438	817.4105224609375	-859.70068359375	-934.0645751953125	1546.683227539062	-465.04833984375	-962.6324462890625	1475.8623046875	-402.2193603515625	-1022.234313964844	1187.572387695312	-386.3740539550781	-1018.98828125	1186.484741210938	-483.2593078613281	-919.9410400390625	925.089111328125	-384.7940368652344	-998.7147827148438	921.0647583007812	-362.0090637207031	-1012.651000976562	1112.578857421875	-368.7746887207031	-925.479248046875	727.6932983398438	-398.1887817382812	-910.140869140625	813.5678100585938	-376.8013916015625	-979.6556396484375	816.8092651367188	-354.5950012207031	-934.2269897460938	1732.904418945312	-566.6823120117188	-749.0866088867188	1785.690673828125	-671.9898071289062	-766.6649169921875	1782.582641601562	-543.2835083007812	-924.2463989257812	1740.764404296875	-701.4559326171875	-973.39111328125	996.1162109375	-798.4434814453125	-898.798828125	991.83740234375	-441.5761108398438	-822.9513549804688	1055.214477539062	-505.6605529785156	-853.3395385742188	1049.1552734375	-770.3599243164062	-1053.836547851562	503.4373779296875	-747.46728515625	-1039.643676757812	650.6632690429688	-779.105224609375	-1322.436767578125	57.33893203735352	-702.3171997070312	-1232.317016601562	299.1211853027344	-754.0984497070312	-1096.097290039062	34.18531036376953	-642.1304931640625	-1174.897338867188	45.19728469848633	-613.2351684570312	-1201.373413085938	31.08083343505859	-727.7095336914062	-1390.001953125	83.06969451904297	-641.6063232421875	-754.4766235351562	533.0203857421875	-504.6029357910156	-828.9475708007812	793.0906982421875	-452.8669128417969	-690.7706909179688	24.06059646606445	-566.9409790039062	-738.91455078125	398.0752868652344	-504.7641906738281	-473.8477478027344	89.86011505126953	-576.1885986328125	-513.7412719726562	62.04925918579102	-627.1123657226562	-570.5296020507812	49.8564453125	-522.5276489257812	-738.3554077148438	21.72136878967285	-623.682861328125	nan	nan	nan	
232	2.31	-1024.832153320312	1092.535766601562	-547.7880859375	-1033.755249023438	1095.640380859375	-683.1727905273438	-1033.320190429688	1133.228515625	-620.6583251953125	-792.0802612304688	1306.358642578125	-635.5328979492188	-1049.832275390625	1289.089599609375	-627.4434204101562	-975.8823852539062	1574.658813476562	-646.1964111328125	-809.1349487304688	1444.891357421875	-637.2313232421875	-1053.048095703125	1397.273071289062	-557.8634033203125	-984.3056640625	1555.242797851562	-748.1802368164062	-900.4389038085938	1528.714233398438	-816.3505249023438	-936.8218994140625	1399.978515625	-886.3737182617188	-953.6322021484375	1179.574829101562	-904.2052612304688	-1023.121765136719	1180.00927734375	-851.5850830078125	-910.4519653320312	907.9862670898438	-850.352294921875	-991.078857421875	898.81787109375	-884.5453491210938	-958.0993041992188	1062.318969726562	-905.6558227539062	-936.2092895507812	716.7578125	-828.8424072265625	-977.4906005859375	819.4686279296875	-882.0634765625	-911.6302490234375	818.672119140625	-859.3453369140625	-925.3527221679688	1547.410888671875	-463.7606201171875	-953.8717651367188	1476.400390625	-401.05419921875	-1013.357360839844	1188.139038085938	-385.6926574707031	-1009.818176269531	1187.15869140625	-482.5838317871094	-910.6668701171875	925.8161010742188	-384.04638671875	-989.465087890625	921.649169921875	-361.4841003417969	-1003.720031738281	1113.143798828125	-368.1573486328125	-915.7744750976562	728.4497680664062	-397.7574157714844	-900.7220458984375	814.3048095703125	-376.20849609375	-970.2608032226562	817.396484375	-354.1768798828125	-925.42919921875	1733.971069335938	-565.2991333007812	-739.9447021484375	1786.607666015625	-669.9093017578125	-757.9256591796875	1783.453125	-541.287353515625	-914.9956665039062	1741.9404296875	-700.0414428710938	-963.7582397460938	996.719482421875	-797.7752685546875	-889.4784545898438	993.390380859375	-440.7926635742188	-813.4031982421875	1056.499633789062	-504.7257690429688	-843.7623291015625	1049.985717773438	-769.3853149414062	-1045.044555664062	503.9819641113281	-747.642333984375	-1030.395629882812	651.323974609375	-778.8919067382812	-1321.03515625	60.78824996948242	-703.4391479492188	-1226.950927734375	302.0532531738281	-754.6638793945312	-1095.916381835938	34.06573486328125	-642.2734985351562	-1174.144287109375	46.10725402832031	-613.8358154296875	-1200.886352539062	31.14131164550781	-727.8101806640625	-1388.010864257812	89.00066375732422	-643.0208740234375	-747.1443481445312	533.49169921875	-504.1663513183594	-819.8740844726562	794.2306518554688	-452.0782165527344	-690.62646484375	23.98098754882812	-566.457275390625	-732.869873046875	398.3050537109375	-504.2422180175781	-471.9014282226562	84.79918670654297	-576.0346069335938	-512.294921875	57.76651000976562	-626.9032592773438	-569.6854248046875	47.22467803955078	-522.2271728515625	-737.9430541992188	22.5803108215332	-623.5599975585938	nan	nan	nan	
233	2.32	-1015.242980957031	1094.035400390625	-547.2697143554688	-1024.139404296875	1096.660034179688	-682.7012939453125	-1023.722900390625	1134.372680664062	-620.1135864257812	-782.4815063476562	1307.7734375	-634.3221435546875	-1040.470458984375	1290.140991210938	-626.9520263671875	-967.0069580078125	1575.8466796875	-645.0310668945312	-800.0447387695312	1446.177124023438	-635.8226928710938	-1043.828369140625	1398.166137695312	-557.077392578125	-975.046875	1556.514526367188	-746.9994506835938	-891.0263061523438	1530.246215820312	-815.0386962890625	-927.2636108398438	1401.527465820312	-885.2676391601562	-944.2343139648438	1181.214721679688	-903.1669311523438	-1013.628967285156	1181.561889648438	-850.3853149414062	-900.8213500976562	909.5806884765625	-849.7705078125	-981.5601806640625	900.431640625	-883.719970703125	-948.6924438476562	1063.949584960938	-904.7449340820312	-926.3037719726562	718.2900390625	-828.4603271484375	-967.9476318359375	821.0841674804688	-881.41357421875	-902.0198974609375	820.2625732421875	-858.8887329101562	-916.7042846679688	1548.415161132812	-462.4556884765625	-945.1911010742188	1477.231811523438	-399.8852844238281	-1004.410705566406	1188.955322265625	-384.9998168945312	-1000.493347167969	1188.072875976562	-481.89892578125	-901.203857421875	926.831298828125	-383.2015075683594	-980.0328369140625	922.4945068359375	-360.8957824707031	-994.6929321289062	1113.960083007812	-367.5232238769531	-905.798583984375	729.4968872070312	-397.2180480957031	-891.064208984375	815.338623046875	-375.5010681152344	-960.6387939453125	818.251220703125	-353.6758422851562	-916.6373291015625	1735.342407226562	-563.858154296875	-730.7679443359375	1787.788452148438	-667.7238159179688	-749.1752319335938	1784.563354492188	-539.192626953125	-905.7142333984375	1743.443603515625	-698.5679321289062	-953.85791015625	997.5828857421875	-797.0648803710938	-880.003662109375	995.2437744140625	-439.8261413574219	-803.6321411132812	1058.124633789062	-503.6793823242188	-833.9619750976562	1051.080688476562	-768.3355102539062	-1035.418334960938	504.5613403320312	-747.9453735351562	-1020.500915527344	652.0596923828125	-778.7118530273438	-1319.344604492188	64.56056976318359	-704.7197265625	-1220.927368164062	305.1797790527344	-755.3539428710938	-1095.69677734375	33.93516540527344	-642.4497680664062	-1173.259033203125	47.12354278564453	-614.5028686523438	-1200.354370117188	31.18493843078613	-727.9218139648438	-1385.578002929688	95.46670532226562	-644.6525268554688	-739.6531982421875	534.2157592773438	-503.7234802246094	-810.614990234375	795.6661376953125	-451.282470703125	-690.2738647460938	23.93116760253906	-565.8443603515625	-726.6559448242188	398.7994384765625	-503.6361389160156	-469.9660949707031	80.66454315185547	-576.3164672851562	-511.0932922363281	54.45904159545898	-627.038818359375	-568.5894165039062	45.27326965332031	-522.2100219726562	-737.522705078125	23.38079452514648	-623.1089477539062	nan	nan	nan	
